<svg width="26" height="27" viewBox="0 0 26 27" fill="none" xmlns="http://www.w3.org/2000/svg">
<path fill-rule="evenodd" clip-rule="evenodd" d="M20.8038 4.68409H9.76257V0H25.4877V15.7251H20.8038V4.68409Z" fill="white"/>
<path fill-rule="evenodd" clip-rule="evenodd" d="M12.179 14.0047C11.4638 13.5268 10.6229 13.2717 9.76259 13.2717V8.58759C11.5493 8.58759 13.2958 9.11739 14.7814 10.11C16.267 11.1026 17.4248 12.5135 18.1086 14.1642C18.7923 15.8149 18.9713 17.6312 18.6227 19.3835C18.2741 21.136 17.4138 22.7455 16.1503 24.009C14.8869 25.2723 13.2773 26.1326 11.525 26.4812C9.77261 26.8298 7.95626 26.6508 6.30557 25.9671C4.6549 25.2833 3.24406 24.1256 2.25144 22.6399C1.25881 21.1545 0.729004 19.4079 0.729004 17.621H5.41309C5.41309 18.4814 5.66819 19.3224 6.14612 20.0375C6.62403 20.7529 7.30334 21.3104 8.0981 21.6397C8.89289 21.9687 9.76741 22.055 10.6111 21.887C11.4549 21.7193 12.2299 21.3051 12.8382 20.6969C13.4464 20.0884 13.8607 19.3135 14.0285 18.4698C14.1963 17.6261 14.1102 16.7513 13.781 15.9567C13.4518 15.1619 12.8943 14.4826 12.179 14.0047Z" fill="white"/>
</svg>
