<svg width="29" height="29" viewBox="0 0 29 29" fill="none" xmlns="http://www.w3.org/2000/svg">
<path d="M3.98004 3.11815C5.95015 1.23717 8.62531 0.139287 11.3367 0.00272371C12.2646 0.00272371 13.1953 0.00829131 14.1233 -6.10352e-05C14.0759 0.994765 14.1233 1.99237 14.0954 2.98715C13.9644 5.21086 13.1424 7.3844 11.7574 9.12881C9.9573 11.4752 7.20414 13.0496 4.281 13.4564C3.00475 13.6626 1.70895 13.5316 0.424345 13.5679C0.446618 12.4727 0.376967 11.3748 0.463369 10.2825C0.714175 7.57391 1.99322 4.97959 3.98004 3.11815Z" fill="white"/>
<path d="M14.9827 0C15.9775 0.0111365 16.9723 -0.00556877 17.9699 0.00556769C20.4528 0.181108 22.9022 1.13413 24.7718 2.78662C26.834 4.55609 28.2468 7.08633 28.6092 9.78932C28.7678 11.0433 28.6677 12.3112 28.7291 13.5707C27.8594 13.5679 26.993 13.5651 26.1233 13.5707C23.9862 13.5122 21.8851 12.8211 20.0961 11.6563C19.2712 11.0656 18.4241 10.4665 17.8055 9.64719C16.4484 8.13131 15.5261 6.22806 15.1777 4.22171C14.9158 2.82838 15.0217 1.40725 14.9827 0Z" fill="white"/>
<path d="M0.426311 14.3676C1.30968 14.4177 2.19583 14.3257 3.07636 14.4233C6.84662 14.5041 10.5055 16.6219 12.4588 19.846C13.5791 21.6517 14.181 23.7919 14.103 25.9182C14.1001 26.6147 14.1113 27.3084 14.0918 28.0025C12.6929 27.9605 11.2801 28.0747 9.89518 27.8043C6.81878 27.2862 3.9904 25.4553 2.28775 22.8416C0.997573 20.9411 0.353876 18.6199 0.420742 16.3265C0.420742 15.6717 0.420743 15.0196 0.426311 14.3676Z" fill="white"/>
<path d="M24.0207 14.6628C25.5369 14.3256 27.0997 14.3814 28.6409 14.3814L28.7079 14.4483C28.6744 15.9056 28.7886 17.3798 28.496 18.8204C27.8802 22.0529 25.7402 24.94 22.8616 26.5255C21.0698 27.5231 19.0133 28.0134 16.9651 27.9912C16.3103 27.994 15.6526 27.9799 14.9978 27.9997C14.9978 26.7931 14.9476 25.5808 15.0842 24.3799C15.4018 21.4733 16.9734 18.7675 19.2334 16.9395C20.6322 15.836 22.2763 15.0362 24.0207 14.6628Z" fill="white"/>
</svg>
