<svg width="25" height="28" viewBox="0 0 25 28" fill="none" xmlns="http://www.w3.org/2000/svg">
<path fill-rule="evenodd" clip-rule="evenodd" d="M14.7837 4.0535C13.2941 3.4365 11.6826 3.17045 10.0738 3.27588C8.46505 3.38134 6.90207 3.85546 5.50581 4.66158L4.09705 5.47493L2.47035 2.65742L3.87912 1.84407C5.70755 0.788442 7.75431 0.167545 9.86105 0.0294758C11.9678 -0.108618 14.0781 0.239795 16.0287 1.04774C17.9792 1.8557 19.7178 3.10153 21.1099 4.68888C22.5019 6.27621 23.5102 8.16253 24.0567 10.2019C24.603 12.2412 24.6731 14.3789 24.2612 16.4496C23.8493 18.5203 22.9666 20.4686 21.6812 22.1436C20.3959 23.8186 18.7427 25.1755 16.8491 26.1092C14.9556 27.0429 12.5132 27.5287 10.7613 27.5287C9.00939 27.5287 7.98645 27.2659 6.64307 26.7096C5.33746 26.1688 4.15118 25.3762 3.15189 24.3769C2.15262 23.3776 1.35997 22.1911 0.819154 20.8855C0.278365 19.58 0 18.1806 0 16.7675C0 15.3543 0.278365 13.9549 0.819154 12.6493C1.35997 11.3437 2.15262 10.1574 3.15189 9.15814C4.15118 8.15887 5.33746 7.3662 6.64307 6.82541C7.94868 6.2846 9.34804 6.00626 10.7612 6.00626C12.1744 6.00626 13.5737 6.2846 14.8794 6.82541C16.185 7.3662 17.3713 8.15887 18.3705 9.15814C19.3698 10.1574 20.1624 11.3437 20.7032 12.6493C20.936 13.2109 21.1199 13.7899 21.2543 14.3798C21.3199 13.2599 21.206 12.1335 20.9142 11.0439C20.4968 9.48658 19.7269 8.04613 18.6639 6.83399C17.6008 5.62183 16.2732 4.67046 14.7837 4.0535ZM4.26379 20.5291C4.44831 17.0316 7.34278 14.2524 10.8863 14.2524C14.2929 14.2524 17.0996 16.8209 17.4755 20.127C17.5551 19.9677 17.6292 19.8055 17.6975 19.6406C18.0749 18.7297 18.269 17.7534 18.269 16.7675C18.269 15.7815 18.0749 14.8053 17.6975 13.8944C17.3203 12.9835 16.7672 12.1558 16.07 11.4586C15.3729 10.7615 14.5452 10.2085 13.6343 9.83114C12.7235 9.45385 11.7472 9.25965 10.7612 9.25965C9.77529 9.25965 8.799 9.45385 7.8881 9.83114C6.97722 10.2085 6.14956 10.7615 5.45238 11.4586C4.75523 12.1558 4.2022 12.9835 3.82489 13.8944C3.44759 14.8053 3.25339 15.7815 3.25339 16.7675C3.25339 17.7534 3.44759 18.7297 3.82489 19.6406C3.95174 19.9468 4.09842 20.2436 4.26379 20.5291ZM14.2649 20.8843C14.2649 22.7502 12.7523 24.2628 10.8863 24.2628C9.02045 24.2628 7.50782 22.7502 7.50782 20.8843C7.50782 19.0184 9.02045 17.5058 10.8863 17.5058C12.7523 17.5058 14.2649 19.0184 14.2649 20.8843Z" fill="white"/>
</svg>