<svg width="35" height="30" viewBox="0 0 35 30" fill="none" xmlns="http://www.w3.org/2000/svg">
<path fill-rule="evenodd" clip-rule="evenodd" d="M24.7358 7.14098C24.7358 11.0848 21.5389 14.282 17.5951 14.282C13.6512 14.282 10.454 11.0848 10.454 7.14098C10.454 3.19713 13.6512 0 17.5951 0C21.5389 0 24.7358 3.19713 24.7358 7.14098ZM0.98451 13.763C8.76445 13.2386 15.5449 19.0634 16.1765 26.86C16.2419 27.6679 16.2388 28.4653 16.1719 29.2471C8.39201 29.7715 1.61156 23.9466 0.979976 16.1502C0.914573 15.3423 0.917688 14.5446 0.98451 13.763ZM21.2057 28.9741C29.0021 28.3425 34.827 21.562 34.3026 13.7821C33.5207 13.7153 32.7234 13.7122 31.9154 13.7776C24.1189 14.4092 18.2941 21.1896 18.8186 28.9695C19.6002 29.0364 20.3978 29.0396 21.2057 28.9741Z" fill="white"/>
</svg>
