<svg width="29" height="29" viewBox="0 0 29 29" fill="none" xmlns="http://www.w3.org/2000/svg">
<path d="M8.27466 1.13576C8.27466 0.808471 8.51835 0.532458 8.84308 0.491836L12.7366 0.00516691C13.1239 -0.0432405 13.4659 0.258725 13.4659 0.649052V13.455C13.4659 13.8453 13.1239 14.1473 12.7366 14.0989L8.84308 13.6122C8.51835 13.5716 8.27466 13.2956 8.27466 12.9683V1.13576Z" fill="white"/>
<path d="M0.487671 2.75798C0.487671 2.43073 0.73136 2.15468 1.05609 2.1141L4.94957 1.62743C5.33691 1.57898 5.67899 1.88099 5.67899 2.27131V12.4816C5.67899 12.8719 5.33691 13.1739 4.94957 13.1255L1.05609 12.6388C0.73136 12.5982 0.487671 12.3222 0.487671 11.9949V2.75798Z" fill="white"/>
<path d="M20.7615 1.08889C21.0501 1.16113 21.253 1.42066 21.253 1.71842V7.12806C21.253 7.45531 21.0092 7.73137 20.6844 7.77195L16.791 8.25866C16.4037 8.30707 16.0616 8.00506 16.0616 7.61473V0.745042C16.0616 0.322903 16.4584 0.0131505 16.8679 0.11551L20.7615 1.08889Z" fill="white"/>
<path d="M28.3911 3.34075C28.3911 3.04299 28.1882 2.78342 27.8996 2.71122L24.0061 1.73784C23.5964 1.63544 23.1996 1.94519 23.1996 2.36737V7.2903C23.1996 7.68063 23.5417 7.98264 23.929 7.93423L27.8225 7.44752C28.1473 7.40694 28.3911 7.13088 28.3911 6.80363V3.34075Z" fill="white"/>
<path d="M28.3911 9.97211L15.7372 10.2966C15.9202 12.6766 17.9049 14.5145 20.2919 14.5145H23.1995V17.2762L0.487671 15.1634V28.6918L28.3911 26.7452V9.97211Z" fill="white"/>
</svg>
