<svg width="32" height="31" viewBox="0 0 32 31" fill="none" xmlns="http://www.w3.org/2000/svg">
<path fill-rule="evenodd" clip-rule="evenodd" d="M5.56638 7.6693C7.88066 4.5564 11.5866 2.53964 15.7636 2.53964C19.9651 2.53964 23.6898 4.58019 26.0013 7.72431C25.903 7.82549 25.8133 7.93033 25.7323 8.03505C25.3088 8.58334 24.9903 9.28959 24.7351 10.0068C24.2211 11.4492 23.829 13.3333 23.4661 15.0977L23.4338 15.2563C23.0717 17.0174 22.7351 18.6552 22.3281 19.871C22.1452 20.4172 21.9718 20.8034 21.818 21.0508C21.6576 20.8014 21.4755 20.4106 21.2828 19.8565C20.8475 18.6058 20.4814 16.9045 20.0933 15.0881L20.0807 15.0286V15.0285C19.7078 13.2837 19.3121 11.4325 18.8189 10.0154C18.571 9.30355 18.2669 8.60437 17.8693 8.06116C17.4789 7.52805 16.8292 6.92639 15.879 6.92639C14.9347 6.92639 14.282 7.52152 13.8861 8.04865C13.4807 8.58833 13.1647 9.28463 12.9043 9.99683C12.38 11.431 11.9513 13.307 11.5524 15.0737L11.5112 15.2563C11.1161 17.0064 10.7468 18.6426 10.3277 19.8608C10.1676 20.326 10.0166 20.6799 9.87991 20.9328C9.74633 20.6811 9.5991 20.3296 9.44342 19.8683C9.04126 18.6761 8.68896 17.0857 8.31059 15.3774L8.24436 15.0785C7.85231 13.3107 7.42698 11.4313 6.89521 9.99262C6.63099 9.27775 6.30783 8.57799 5.88962 8.03575C5.79493 7.91303 5.6873 7.78845 5.56638 7.6693ZM4.16571 10.0595C4.27593 10.2772 4.39253 10.5469 4.5131 10.8731C4.97338 12.1184 5.36335 13.8176 5.76493 15.6284L5.84306 15.9812C6.20869 17.6334 6.58903 19.3521 7.03701 20.6799C7.27527 21.3862 7.563 22.0779 7.93308 22.6154C8.28302 23.1239 8.91082 23.7806 9.87618 23.7806C10.8387 23.7806 11.468 23.127 11.8204 22.6209C12.1936 22.0846 12.4861 21.3937 12.7292 20.687C13.1951 19.3329 13.5919 17.5739 13.9716 15.8905V15.8904L14.0297 15.6331C14.4388 13.8213 14.8326 12.1187 15.2896 10.8689C15.5012 10.2898 15.6994 9.88645 15.8719 9.63619C16.0355 9.88428 16.2223 10.2813 16.4204 10.8503C16.8558 12.1011 17.2216 13.8023 17.6098 15.6188L17.6225 15.6783C17.9953 17.4231 18.391 19.2744 18.8843 20.6913C19.1321 21.4035 19.4362 22.1027 19.8338 22.6457C20.2242 23.1789 20.8739 23.7806 21.8239 23.7806C22.7791 23.7806 23.4264 23.1734 23.8121 22.6355C24.2038 22.0897 24.4983 21.3882 24.7362 20.6772C25.1936 19.3116 25.5573 17.5397 25.9038 15.854V15.854L25.9537 15.6092C26.3269 13.7949 26.6851 12.1004 27.1275 10.8589C27.2235 10.5888 27.3178 10.3586 27.4079 10.1651C28.0858 11.7189 28.4618 13.4345 28.4618 15.2379C28.4618 22.2509 22.7767 27.9363 15.7636 27.9363C8.7505 27.9363 3.06528 22.2509 3.06528 15.2379C3.06528 13.3935 3.45851 11.6409 4.16571 10.0595ZM15.7636 0C7.3479 0 0.525635 6.82227 0.525635 15.2379C0.525635 23.6536 7.3479 30.4759 15.7636 30.4759C24.1794 30.4759 31.0013 23.6536 31.0013 15.2379C31.0013 6.82227 24.1794 0 15.7636 0ZM16.052 9.42522C16.0533 9.42431 16.0538 9.42376 16.0538 9.42361C16.0538 9.42329 16.0509 9.42502 16.045 9.42974C16.0482 9.42785 16.0505 9.42632 16.052 9.42522ZM15.7028 9.42533C15.6969 9.42172 15.694 9.41924 15.694 9.41893C15.694 9.41861 15.697 9.42042 15.7028 9.42533ZM21.6309 21.2918C21.6309 21.2918 21.6336 21.2891 21.6391 21.2855C21.6336 21.2902 21.6309 21.2922 21.6309 21.2918ZM22.0001 21.2816C22.006 21.2851 22.0091 21.2875 22.0091 21.2879C22.0091 21.2883 22.006 21.2863 22.0001 21.2816ZM9.61593 21.3146C9.61589 21.3142 9.61955 21.3107 9.62687 21.3056C9.61963 21.3123 9.61593 21.315 9.61593 21.3146ZM10.1302 21.3079C10.1375 21.313 10.1411 21.3166 10.1411 21.317C10.1411 21.3174 10.1374 21.315 10.1302 21.3079Z" fill="white"/>
</svg>
