<svg width="36" height="36" viewBox="0 0 36 36" fill="none" xmlns="http://www.w3.org/2000/svg">
<path fill-rule="evenodd" clip-rule="evenodd" d="M27.9856 0C31.7779 0 34.942 2.6604 35.6737 6.19708C35.7782 6.70234 35.8331 7.22545 35.8331 7.76125V27.6301C35.8331 31.9164 32.3197 35.3913 27.9856 35.3913H7.89609C7.03804 35.3913 6.2122 35.255 5.43938 35.0036C2.3086 33.9837 0.048584 31.068 0.048584 27.6301V7.76125C0.048584 3.47484 3.56204 0 7.89609 0H27.9856ZM24.8027 2.4836H27.9856C30.5863 2.4836 32.7525 4.32364 33.2259 6.75918C31.7157 6.92841 29.9893 6.7716 28.1661 5.99892C26.5508 5.31413 25.4791 4.04548 24.8027 2.4836ZM17.3516 2.4836H22.1213C22.9139 4.84287 24.432 7.11819 27.177 8.28169C29.379 9.21503 31.4702 9.43154 33.3219 9.24968V11.7874C30.8079 12.5745 28.3027 12.8931 26.2981 12.3128C25.3024 12.0246 24.1598 11.2593 22.9303 10.0555C21.7177 8.86823 20.5076 7.34115 19.365 5.67192C18.655 4.63462 17.9788 3.55406 17.3516 2.4836ZM14.4677 2.4836H11.1447C11.2962 5.29401 10.6266 8.72681 8.13594 12.2044C6.48583 14.5084 4.53447 15.7755 2.55978 16.3415V21.2928C3.74965 20.5782 5.15043 19.6021 6.79047 18.2843C10.6655 15.1703 13.7176 13.9314 16.032 13.7047C18.3329 13.4794 19.9686 14.2688 20.689 15.2665C21.4455 16.3138 21.8731 17.7174 22.0341 19.1976C22.197 20.6958 22.0978 22.367 21.7155 24.0254C20.9562 27.3224 19.0279 30.7541 15.5542 32.6041C15.365 32.705 15.1741 32.8062 14.9818 32.9077H18.885C20.4115 30.991 21.6332 29.0867 22.0714 27.5944C22.5658 25.9095 22.7689 24.1235 22.9585 22.4539L22.9588 22.4536V22.453C23.0269 21.8535 23.0935 21.2686 23.171 20.7089C23.3057 19.739 23.4915 18.7115 23.8905 17.9704C24.1017 17.5783 24.4373 17.1418 24.9772 16.8897C25.5457 16.6243 26.1374 16.6569 26.6563 16.8279C28.1109 17.3076 30.0445 17.4069 33.3219 16.5948V14.3796C30.7944 15.0839 28.0387 15.4044 25.5925 14.6964C24.0142 14.2395 22.5159 13.1446 21.1636 11.8205C19.7944 10.4799 18.4817 8.81132 17.2857 7.06429C16.2627 5.56991 15.3104 3.99608 14.4677 2.4836ZM33.3219 19.1492C30.1996 19.8561 27.9542 19.8266 26.0551 19.2454C25.9148 19.5705 25.7839 20.1467 25.659 21.0467C25.5969 21.4937 25.5394 22.0019 25.4769 22.5514V22.5517C25.283 24.2642 25.0434 26.3774 24.4828 28.2867C24.0534 29.7501 23.1243 31.3579 22.02 32.9077H24.5462C25.0124 31.7615 25.4415 30.67 25.7786 29.7526C26.1408 28.7666 26.3675 28.0576 26.4406 27.6968C26.579 27.0116 26.843 26.2743 27.4624 25.7518C28.1065 25.2079 28.8975 25.0912 29.6386 25.1285C30.3684 25.1654 31.2241 25.3597 32.1894 25.6336C32.5403 25.7329 32.9176 25.8465 33.3219 25.9729V19.1492ZM33.2403 28.5549C32.5849 28.3444 32.0079 28.1659 31.4969 28.0209C30.5643 27.7561 29.9387 27.6304 29.5112 27.609C29.235 27.595 29.1232 27.6288 29.0912 27.6428C29.073 27.6639 28.9838 27.784 28.9032 28.1839C28.7876 28.7545 28.4954 29.63 28.1388 30.6008C27.883 31.2974 27.5788 32.0828 27.2495 32.9077H27.9856C30.6139 32.9077 32.7983 31.0286 33.2403 28.5549ZM9.56343 32.9077C11.208 32.0689 12.8678 31.2139 14.3636 30.4173C17.0111 29.0075 18.6141 26.3082 19.2671 23.4738C19.5913 22.0665 19.6685 20.6716 19.5373 19.4634C19.4039 18.2368 19.0665 17.2927 18.6455 16.71C18.5815 16.6212 17.9415 16.0136 16.2794 16.1763C14.6307 16.3377 12.0326 17.2719 8.37403 20.2119C6.08385 22.0522 4.1673 23.3129 2.55978 24.1465V26.9474C2.95605 26.5888 3.40352 26.2892 3.81705 26.0337C4.23834 25.7733 4.69738 25.5171 5.14852 25.2669L5.26033 25.2048C5.68174 24.9714 6.10001 24.7395 6.51537 24.4936C7.42395 23.9553 8.24094 23.393 8.86915 22.7389C9.95681 21.6064 11.5267 20.255 13.0026 19.3324C13.7308 18.8769 14.5171 18.4743 15.2591 18.2895C15.9554 18.116 17.0349 18.0455 17.7873 18.8962C18.5033 19.7055 18.8 20.9194 18.2786 22.4949C17.7833 23.9916 16.5393 25.881 14.1347 28.3385C11.6388 30.8892 9.14277 32.167 7.03845 32.5743C6.80111 32.6202 6.56763 32.655 6.33886 32.6795C6.8315 32.8279 7.35436 32.9077 7.89609 32.9077H9.56343ZM2.55978 13.7138C3.77643 13.2147 4.98853 12.3022 6.08674 10.7688C8.25522 7.7411 8.77925 4.80518 8.63002 2.4836H7.89609C4.94891 2.4836 2.55978 4.8465 2.55978 7.76125V13.7138ZM29.0887 27.644C29.0827 27.6468 29.0802 27.6487 29.0805 27.6487C29.0808 27.649 29.0821 27.6484 29.0843 27.6468L29.0858 27.6459L29.0887 27.644ZM14.3444 21.4316C13.0798 22.222 11.6675 23.4315 10.6899 24.4495C9.82723 25.3476 8.7805 26.0468 7.80568 26.6242C7.35772 26.8893 6.90849 27.1383 6.49214 27.3693L6.37681 27.4332C5.92053 27.6863 5.51142 27.9151 5.14792 28.1398C4.36411 28.6241 4.03647 28.9501 3.93376 29.1584C3.90431 29.2183 3.9008 29.2525 3.9099 29.3046C3.9228 29.3791 3.97686 29.5508 4.19191 29.8343L4.21281 29.8619L4.23215 29.8905C4.23334 29.892 4.26163 29.9308 4.3515 29.9851C4.44432 30.0413 4.58799 30.1047 4.79205 30.1543C5.20216 30.2543 5.79914 30.2832 6.5563 30.1366C8.06189 29.8454 10.1175 28.8725 12.3301 26.6112C14.6342 24.2567 15.5713 22.6908 15.892 21.7225C16.0829 21.1457 16.0436 20.8334 15.9827 20.6738C15.952 20.6794 15.9155 20.6872 15.8725 20.698C15.5099 20.7884 14.9865 21.0302 14.3444 21.4316ZM16.1177 20.662C16.1171 20.6629 16.1095 20.6629 16.097 20.6605C16.1117 20.6601 16.1183 20.6614 16.1177 20.662Z" fill="white"/>
</svg>
