<svg width="208" height="42" viewBox="0 0 208 42" fill="none" xmlns="http://www.w3.org/2000/svg">
<g clip-path="url(#clip0_1302_241)">
<path d="M22.236 15.0129C23.2832 14.4083 24.981 14.4083 26.0281 15.0129L46.3439 26.7412C47.3911 27.3457 47.3911 28.3258 46.3439 28.9304L26.0281 40.6587C24.981 41.2632 23.2832 41.2632 22.236 40.6587L1.92022 28.9304C0.873062 28.3258 0.873063 27.3457 1.92022 26.7412L22.236 15.0129Z" fill="#A2A2A2"/>
<path d="M22.2119 8.38743C23.259 7.78291 24.9568 7.78291 26.004 8.38743L46.3198 20.1158C47.3669 20.7203 47.3669 21.7004 46.3198 22.3049L26.004 34.0332C24.9568 34.6378 23.259 34.6378 22.2119 34.0332L1.89605 22.3049C0.848893 21.7004 0.848893 20.7203 1.89605 20.1158L22.2119 8.38743Z" fill="#CBCBCB"/>
<path d="M22.2119 1.09459C23.259 0.490064 24.9568 0.490063 26.004 1.09459L46.3198 12.8229C47.3669 13.4274 47.3669 14.4076 46.3198 15.0121L26.004 26.7404C24.9568 27.3449 23.259 27.3449 22.2119 26.7404L1.89605 15.0121C0.848893 14.4076 0.848891 13.4274 1.89605 12.8229L22.2119 1.09459Z" fill="#EBEBEB"/>
</g>
<path d="M65.1706 23.21L57 3H60.6089L66.9895 19.3701H65.7192L72.1575 3H75.7087L67.4803 23.21H65.1706Z" fill="url(#paint0_linear_1302_241)"/>
<path d="M81.2112 23.4987C79.9601 23.4987 78.8245 23.1811 77.8043 22.5459C76.8035 21.9108 76.0047 21.0543 75.408 19.9764C74.8306 18.8793 74.5419 17.6571 74.5419 16.3097C74.5419 14.9431 74.8306 13.7209 75.408 12.6431C76.0047 11.5459 76.8035 10.6798 77.8043 10.0446C78.8245 9.39021 79.9601 9.063 81.2112 9.063C82.2698 9.063 83.2033 9.29397 84.0117 9.75591C84.8393 10.1986 85.4937 10.8145 85.9749 11.6037C86.4561 12.3928 86.6967 13.2878 86.6967 14.2887V18.273C86.6967 19.2738 86.4561 20.1689 85.9749 20.958C85.513 21.7472 84.8682 22.3727 84.0406 22.8347C83.2129 23.2774 82.2698 23.4987 81.2112 23.4987ZM81.7308 20.4961C82.9049 20.4961 83.8481 20.1015 84.5602 19.3123C85.2916 18.5232 85.6574 17.5127 85.6574 16.2808C85.6574 15.4532 85.4937 14.7218 85.1665 14.0866C84.8393 13.4515 84.3774 12.9606 83.7807 12.6142C83.2033 12.2485 82.52 12.0656 81.7308 12.0656C80.9609 12.0656 80.2776 12.2485 79.681 12.6142C79.1035 12.9606 78.6416 13.4515 78.2951 14.0866C77.9679 14.7218 77.8043 15.4532 77.8043 16.2808C77.8043 17.1085 77.9679 17.8399 78.2951 18.4751C78.6416 19.1102 79.1035 19.6107 79.681 19.9764C80.2776 20.3228 80.9609 20.4961 81.7308 20.4961ZM85.4553 23.21V19.4856L86.0038 16.1076L85.4553 12.7585V9.35171H88.6311V23.21H85.4553Z" fill="url(#paint1_linear_1302_241)"/>
<path d="M101.654 23.21V15.2126C101.654 14.2887 101.356 13.5284 100.759 12.9318C100.182 12.3351 99.4313 12.0367 98.5074 12.0367C97.8915 12.0367 97.3429 12.1715 96.8617 12.4409C96.3805 12.7104 96.0052 13.0857 95.7357 13.5669C95.4663 14.0481 95.3315 14.5967 95.3315 15.2126L94.0901 14.5197C94.0901 13.4611 94.321 12.5276 94.783 11.7192C95.2449 10.8915 95.8801 10.2467 96.6885 9.78478C97.5161 9.30359 98.44 9.063 99.4601 9.063C100.5 9.063 101.423 9.33246 102.232 9.8714C103.04 10.3911 103.675 11.0744 104.137 11.9213C104.599 12.7489 104.83 13.6151 104.83 14.5197V23.21H101.654ZM92.1557 23.21V9.35171H95.3315V23.21H92.1557Z" fill="url(#paint2_linear_1302_241)"/>
<path d="M114.438 23.4987C113.071 23.4987 111.83 23.1811 110.714 22.5459C109.617 21.9108 108.75 21.0446 108.115 19.9475C107.48 18.8504 107.162 17.6282 107.162 16.2808C107.162 14.9143 107.48 13.692 108.115 12.6142C108.75 11.5171 109.617 10.6509 110.714 10.0158C111.83 9.38058 113.071 9.063 114.438 9.063C115.516 9.063 116.517 9.27472 117.441 9.69817C118.384 10.1024 119.183 10.6894 119.837 11.4593L117.758 13.5669C117.354 13.0857 116.863 12.7297 116.286 12.4987C115.728 12.2485 115.112 12.1234 114.438 12.1234C113.649 12.1234 112.946 12.3062 112.33 12.6719C111.734 13.0184 111.262 13.4996 110.916 14.1155C110.589 14.7314 110.425 15.4532 110.425 16.2808C110.425 17.0892 110.589 17.811 110.916 18.4462C111.262 19.0621 111.734 19.5529 112.33 19.9186C112.946 20.2651 113.649 20.4383 114.438 20.4383C115.112 20.4383 115.728 20.3228 116.286 20.0919C116.863 19.8417 117.354 19.476 117.758 18.9948L119.837 21.1024C119.183 21.8723 118.384 22.469 117.441 22.8924C116.517 23.2966 115.516 23.4987 114.438 23.4987Z" fill="url(#paint3_linear_1302_241)"/>
<path d="M128.196 23.4987C126.849 23.4987 125.627 23.1811 124.53 22.5459C123.433 21.8915 122.557 21.0158 121.902 19.9186C121.267 18.8215 120.95 17.5993 120.95 16.252C120.95 14.9046 121.267 13.692 121.902 12.6142C122.557 11.5363 123.433 10.6798 124.53 10.0446C125.627 9.39021 126.849 9.063 128.196 9.063C129.563 9.063 130.795 9.38058 131.892 10.0158C132.989 10.6509 133.855 11.5171 134.49 12.6142C135.145 13.692 135.472 14.9046 135.472 16.252C135.472 17.5993 135.145 18.8215 134.49 19.9186C133.855 21.0158 132.989 21.8915 131.892 22.5459C130.795 23.1811 129.563 23.4987 128.196 23.4987ZM128.196 20.4383C128.986 20.4383 129.678 20.2651 130.275 19.9186C130.891 19.5529 131.363 19.0525 131.69 18.4173C132.036 17.7822 132.21 17.0604 132.21 16.252C132.21 15.4436 132.036 14.7314 131.69 14.1155C131.343 13.4996 130.872 13.0184 130.275 12.6719C129.678 12.3062 128.986 12.1234 128.196 12.1234C127.427 12.1234 126.734 12.3062 126.118 12.6719C125.521 13.0184 125.049 13.4996 124.703 14.1155C124.376 14.7314 124.212 15.4436 124.212 16.252C124.212 17.0604 124.376 17.7822 124.703 18.4173C125.049 19.0525 125.521 19.5529 126.118 19.9186C126.734 20.2651 127.427 20.4383 128.196 20.4383Z" fill="url(#paint4_linear_1302_241)"/>
<path d="M143.801 23.4987C142.627 23.4987 141.578 23.2389 140.654 22.7192C139.749 22.1995 139.037 21.4873 138.517 20.5827C138.017 19.6588 137.767 18.6002 137.767 17.4068V9.35171H140.942V17.2625C140.942 17.9361 141.048 18.5136 141.26 18.9948C141.491 19.4567 141.818 19.8128 142.242 20.063C142.684 20.3132 143.204 20.4383 143.801 20.4383C144.725 20.4383 145.427 20.1689 145.908 19.6299C146.409 19.0717 146.659 18.2826 146.659 17.2625V9.35171H149.835V17.4068C149.835 18.6194 149.575 19.6877 149.055 20.6116C148.555 21.5162 147.852 22.2284 146.948 22.748C146.043 23.2485 144.994 23.4987 143.801 23.4987Z" fill="url(#paint5_linear_1302_241)"/>
<path d="M157.705 23.21L151.382 9.35171H154.905L159.726 20.6404H157.648L162.498 9.35171H165.876L159.553 23.21H157.705Z" fill="url(#paint6_linear_1302_241)"/>
<path d="M173.733 23.4987C172.347 23.4987 171.096 23.1907 169.98 22.5748C168.883 21.9396 168.007 21.0735 167.352 19.9764C166.717 18.8793 166.4 17.6474 166.4 16.2808C166.4 14.9143 166.717 13.692 167.352 12.6142C167.988 11.5171 168.844 10.6509 169.922 10.0158C171.019 9.38058 172.232 9.063 173.56 9.063C174.849 9.063 175.985 9.36133 176.967 9.95801C177.967 10.5547 178.747 11.3727 179.305 12.4121C179.883 13.4515 180.171 14.6352 180.171 15.9633C180.171 16.1942 180.152 16.4348 180.114 16.685C180.094 16.916 180.056 17.1759 179.998 17.4646H168.623V14.8661H178.352L177.169 15.9055C177.13 15.0586 176.967 14.3465 176.678 13.769C176.389 13.1916 175.975 12.7489 175.436 12.4409C174.917 12.133 174.272 11.979 173.502 11.979C172.694 11.979 171.991 12.1522 171.394 12.4987C170.798 12.8451 170.336 13.336 170.009 13.9711C169.681 14.5871 169.518 15.3281 169.518 16.1942C169.518 17.0604 169.691 17.8207 170.037 18.4751C170.384 19.1295 170.875 19.6396 171.51 20.0053C172.145 20.3517 172.876 20.5249 173.704 20.5249C174.416 20.5249 175.071 20.3998 175.667 20.1496C176.283 19.8994 176.803 19.5337 177.226 19.0525L179.247 21.1024C178.574 21.8915 177.756 22.4882 176.793 22.8924C175.831 23.2966 174.811 23.4987 173.733 23.4987Z" fill="url(#paint7_linear_1302_241)"/>
<path d="M182.717 23.21V9.35171H185.893V23.21H182.717ZM185.893 15.5013L184.796 14.9528C184.796 13.2012 185.181 11.7865 185.951 10.7087C186.74 9.61155 187.924 9.063 189.502 9.063C190.195 9.063 190.82 9.18811 191.379 9.43832C191.937 9.68854 192.456 10.0927 192.938 10.6509L190.859 12.7874C190.609 12.5179 190.33 12.3255 190.022 12.21C189.714 12.0945 189.358 12.0367 188.953 12.0367C188.068 12.0367 187.337 12.3158 186.759 12.874C186.182 13.4322 185.893 14.308 185.893 15.5013Z" fill="url(#paint8_linear_1302_241)"/>
<path d="M195 18.0101V15.1595H207.571V18.0101H195ZM199.846 10H202.754V23.1412H199.846V10Z" fill="white"/>
<path d="M63.9805 37H59.9424V29.8613H63.9805V30.8477H61.1094V32.791H63.7998V33.7676H61.1094V36.0088H63.9805V37ZM64.9375 34.8076V33.8311H67.4473V34.8076H64.9375ZM71.7881 30.7598C71.1175 30.7598 70.5902 30.9974 70.2061 31.4727C69.8219 31.9479 69.6299 32.6038 69.6299 33.4404C69.6299 34.3161 69.8138 34.9785 70.1816 35.4277C70.5527 35.877 71.0882 36.1016 71.7881 36.1016C72.0908 36.1016 72.3838 36.0723 72.667 36.0137C72.9502 35.9518 73.2448 35.8737 73.5508 35.7793V36.7803C72.9909 36.9919 72.3561 37.0977 71.6465 37.0977C70.6016 37.0977 69.7992 36.7819 69.2393 36.1504C68.6794 35.5156 68.3994 34.609 68.3994 33.4307C68.3994 32.6885 68.5345 32.0391 68.8047 31.4824C69.0781 30.9258 69.472 30.4993 69.9863 30.2031C70.5007 29.9069 71.1045 29.7588 71.7979 29.7588C72.527 29.7588 73.2008 29.9118 73.8193 30.2178L73.3994 31.1895C73.1585 31.0755 72.903 30.9762 72.6328 30.8916C72.3659 30.8037 72.0843 30.7598 71.7881 30.7598ZM81.4268 33.4209C81.4268 34.583 81.1354 35.4863 80.5527 36.1309C79.9733 36.7754 79.1514 37.0977 78.0869 37.0977C77.0094 37.0977 76.181 36.7786 75.6016 36.1406C75.0254 35.4993 74.7373 34.5895 74.7373 33.4111C74.7373 32.2327 75.027 31.3278 75.6064 30.6963C76.1891 30.0648 77.0192 29.749 78.0967 29.749C79.1579 29.749 79.9782 30.0697 80.5576 30.7109C81.137 31.3522 81.4268 32.2555 81.4268 33.4209ZM75.9775 33.4209C75.9775 34.2998 76.1549 34.9671 76.5098 35.4229C76.8646 35.8753 77.3903 36.1016 78.0869 36.1016C78.7803 36.1016 79.3027 35.877 79.6543 35.4277C80.0091 34.9785 80.1865 34.3096 80.1865 33.4209C80.1865 32.5452 80.0107 31.8812 79.6592 31.4287C79.3109 30.9762 78.79 30.75 78.0967 30.75C77.3968 30.75 76.8678 30.9762 76.5098 31.4287C76.1549 31.8812 75.9775 32.5452 75.9775 33.4209ZM86.0459 37L83.9756 31.0381H83.9365C83.9919 31.9235 84.0195 32.7536 84.0195 33.5283V37H82.96V29.8613H84.6055L86.5879 35.54H86.6172L88.6582 29.8613H90.3086V37H89.1855V33.4697C89.1855 33.1149 89.1937 32.6527 89.21 32.083C89.2295 31.5133 89.2458 31.1683 89.2588 31.0479H89.2197L87.0762 37H86.0459ZM95.2744 37L93.2041 31.0381H93.165C93.2204 31.9235 93.248 32.7536 93.248 33.5283V37H92.1885V29.8613H93.834L95.8164 35.54H95.8457L97.8867 29.8613H99.5371V37H98.4141V33.4697C98.4141 33.1149 98.4222 32.6527 98.4385 32.083C98.458 31.5133 98.4743 31.1683 98.4873 31.0479H98.4482L96.3047 37H95.2744ZM105.455 37H101.417V29.8613H105.455V30.8477H102.584V32.791H105.274V33.7676H102.584V36.0088H105.455V37ZM108.17 33.1816H108.98C109.524 33.1816 109.918 33.0807 110.162 32.8789C110.406 32.6771 110.528 32.3776 110.528 31.9805C110.528 31.5768 110.396 31.2871 110.133 31.1113C109.869 30.9355 109.472 30.8477 108.941 30.8477H108.17V33.1816ZM108.17 34.1484V37H107.003V29.8613H109.02C109.941 29.8613 110.623 30.0339 111.065 30.3789C111.508 30.724 111.729 31.2448 111.729 31.9414C111.729 32.8301 111.267 33.4632 110.343 33.8408L112.359 37H111.031L109.322 34.1484H108.17ZM116.437 30.7598C115.766 30.7598 115.239 30.9974 114.854 31.4727C114.47 31.9479 114.278 32.6038 114.278 33.4404C114.278 34.3161 114.462 34.9785 114.83 35.4277C115.201 35.877 115.737 36.1016 116.437 36.1016C116.739 36.1016 117.032 36.0723 117.315 36.0137C117.599 35.9518 117.893 35.8737 118.199 35.7793V36.7803C117.639 36.9919 117.005 37.0977 116.295 37.0977C115.25 37.0977 114.448 36.7819 113.888 36.1504C113.328 35.5156 113.048 34.609 113.048 33.4307C113.048 32.6885 113.183 32.0391 113.453 31.4824C113.727 30.9258 114.12 30.4993 114.635 30.2031C115.149 29.9069 115.753 29.7588 116.446 29.7588C117.175 29.7588 117.849 29.9118 118.468 30.2178L118.048 31.1895C117.807 31.0755 117.551 30.9762 117.281 30.8916C117.014 30.8037 116.733 30.7598 116.437 30.7598ZM123.775 37H119.737V29.8613H123.775V30.8477H120.904V32.791H123.595V33.7676H120.904V36.0088H123.775V37ZM132.35 37L131.637 35.0176H128.907L128.209 37H126.979L129.649 29.832H130.919L133.59 37H132.35ZM131.329 34.0117L130.66 32.0684C130.611 31.9382 130.543 31.7331 130.455 31.4531C130.37 31.1732 130.312 30.9681 130.279 30.8379C130.191 31.2383 130.063 31.6761 129.894 32.1514L129.249 34.0117H131.329ZM140.479 37H139.049L135.538 31.3115H135.499L135.523 31.6289C135.569 32.2344 135.592 32.7878 135.592 33.2891V37H134.532V29.8613H135.948L139.449 35.5205H139.479C139.472 35.4456 139.459 35.1738 139.439 34.7051C139.42 34.2331 139.41 33.8652 139.41 33.6016V29.8613H140.479V37ZM148.17 33.3623C148.17 34.5407 147.843 35.4424 147.188 36.0674C146.534 36.6891 145.592 37 144.361 37H142.364V29.8613H144.571C145.707 29.8613 146.591 30.1673 147.223 30.7793C147.854 31.3913 148.17 32.2523 148.17 33.3623ZM146.939 33.4014C146.939 31.6924 146.14 30.8379 144.542 30.8379H143.531V36.0186H144.361C146.08 36.0186 146.939 35.1462 146.939 33.4014ZM155.343 30.7598C154.672 30.7598 154.145 30.9974 153.761 31.4727C153.377 31.9479 153.185 32.6038 153.185 33.4404C153.185 34.3161 153.368 34.9785 153.736 35.4277C154.107 35.877 154.643 36.1016 155.343 36.1016C155.646 36.1016 155.938 36.0723 156.222 36.0137C156.505 35.9518 156.799 35.8737 157.105 35.7793V36.7803C156.546 36.9919 155.911 37.0977 155.201 37.0977C154.156 37.0977 153.354 36.7819 152.794 36.1504C152.234 35.5156 151.954 34.609 151.954 33.4307C151.954 32.6885 152.089 32.0391 152.359 31.4824C152.633 30.9258 153.027 30.4993 153.541 30.2031C154.055 29.9069 154.659 29.7588 155.353 29.7588C156.082 29.7588 156.756 29.9118 157.374 30.2178L156.954 31.1895C156.713 31.0755 156.458 30.9762 156.188 30.8916C155.921 30.8037 155.639 30.7598 155.343 30.7598ZM161.729 37L159.659 31.0381H159.62C159.675 31.9235 159.703 32.7536 159.703 33.5283V37H158.644V29.8613H160.289L162.271 35.54H162.301L164.342 29.8613H165.992V37H164.869V33.4697C164.869 33.1149 164.877 32.6527 164.894 32.083C164.913 31.5133 164.929 31.1683 164.942 31.0479H164.903L162.76 37H161.729ZM171.988 35.0615C171.988 35.6963 171.759 36.1943 171.3 36.5557C170.841 36.917 170.208 37.0977 169.4 37.0977C168.593 37.0977 167.932 36.9723 167.418 36.7217V35.6182C167.743 35.7712 168.089 35.8916 168.453 35.9795C168.821 36.0674 169.163 36.1113 169.479 36.1113C169.941 36.1113 170.281 36.0234 170.499 35.8477C170.72 35.6719 170.831 35.4359 170.831 35.1396C170.831 34.8727 170.73 34.6465 170.528 34.4609C170.326 34.2754 169.91 34.0557 169.278 33.8018C168.627 33.5381 168.168 33.237 167.901 32.8984C167.634 32.5599 167.501 32.153 167.501 31.6777C167.501 31.082 167.713 30.6133 168.136 30.2715C168.559 29.9297 169.127 29.7588 169.84 29.7588C170.523 29.7588 171.204 29.9085 171.881 30.208L171.51 31.1602C170.875 30.8932 170.309 30.7598 169.811 30.7598C169.433 30.7598 169.146 30.8428 168.951 31.0088C168.756 31.1715 168.658 31.388 168.658 31.6582C168.658 31.8438 168.697 32.0033 168.775 32.1367C168.854 32.2669 168.982 32.3906 169.161 32.5078C169.34 32.625 169.662 32.7796 170.128 32.9717C170.652 33.1898 171.036 33.3932 171.28 33.582C171.524 33.7708 171.703 33.984 171.817 34.2217C171.931 34.4593 171.988 34.7393 171.988 35.0615Z" fill="#9F9F9F"/>
<defs>
<linearGradient id="paint0_linear_1302_241" x1="56.2639" y1="11.6957" x2="193.264" y2="11.6957" gradientUnits="userSpaceOnUse">
<stop stop-color="#DEC880"/>
<stop offset="0.155674" stop-color="white"/>
<stop offset="0.567708" stop-color="#FF347D"/>
<stop offset="1" stop-color="#827DED"/>
</linearGradient>
<linearGradient id="paint1_linear_1302_241" x1="56.2639" y1="11.6957" x2="193.264" y2="11.6957" gradientUnits="userSpaceOnUse">
<stop stop-color="#DEC880"/>
<stop offset="0.155674" stop-color="white"/>
<stop offset="0.567708" stop-color="#FF347D"/>
<stop offset="1" stop-color="#827DED"/>
</linearGradient>
<linearGradient id="paint2_linear_1302_241" x1="56.2639" y1="11.6957" x2="193.264" y2="11.6957" gradientUnits="userSpaceOnUse">
<stop stop-color="#DEC880"/>
<stop offset="0.155674" stop-color="white"/>
<stop offset="0.567708" stop-color="#FF347D"/>
<stop offset="1" stop-color="#827DED"/>
</linearGradient>
<linearGradient id="paint3_linear_1302_241" x1="56.2639" y1="11.6957" x2="193.264" y2="11.6957" gradientUnits="userSpaceOnUse">
<stop stop-color="#DEC880"/>
<stop offset="0.155674" stop-color="white"/>
<stop offset="0.567708" stop-color="#FF347D"/>
<stop offset="1" stop-color="#827DED"/>
</linearGradient>
<linearGradient id="paint4_linear_1302_241" x1="56.2639" y1="11.6957" x2="193.264" y2="11.6957" gradientUnits="userSpaceOnUse">
<stop stop-color="#DEC880"/>
<stop offset="0.155674" stop-color="white"/>
<stop offset="0.567708" stop-color="#FF347D"/>
<stop offset="1" stop-color="#827DED"/>
</linearGradient>
<linearGradient id="paint5_linear_1302_241" x1="56.2639" y1="11.6957" x2="193.264" y2="11.6957" gradientUnits="userSpaceOnUse">
<stop stop-color="#DEC880"/>
<stop offset="0.155674" stop-color="white"/>
<stop offset="0.567708" stop-color="#FF347D"/>
<stop offset="1" stop-color="#827DED"/>
</linearGradient>
<linearGradient id="paint6_linear_1302_241" x1="56.2639" y1="11.6957" x2="193.264" y2="11.6957" gradientUnits="userSpaceOnUse">
<stop stop-color="#DEC880"/>
<stop offset="0.155674" stop-color="white"/>
<stop offset="0.567708" stop-color="#FF347D"/>
<stop offset="1" stop-color="#827DED"/>
</linearGradient>
<linearGradient id="paint7_linear_1302_241" x1="56.2639" y1="11.6957" x2="193.264" y2="11.6957" gradientUnits="userSpaceOnUse">
<stop stop-color="#DEC880"/>
<stop offset="0.155674" stop-color="white"/>
<stop offset="0.567708" stop-color="#FF347D"/>
<stop offset="1" stop-color="#827DED"/>
</linearGradient>
<linearGradient id="paint8_linear_1302_241" x1="56.2639" y1="11.6957" x2="193.264" y2="11.6957" gradientUnits="userSpaceOnUse">
<stop stop-color="#DEC880"/>
<stop offset="0.155674" stop-color="white"/>
<stop offset="0.567708" stop-color="#FF347D"/>
<stop offset="1" stop-color="#827DED"/>
</linearGradient>
<clipPath id="clip0_1302_241">
<rect width="48.2399" height="41.7532" fill="white"/>
</clipPath>
</defs>
</svg>
