<svg width="104" height="47" viewBox="0 0 104 47" fill="none" xmlns="http://www.w3.org/2000/svg">
<path d="M22.236 17.0129C23.2832 16.4083 24.981 16.4083 26.0281 17.0129L46.3439 28.7412C47.3911 29.3457 47.3911 30.3258 46.3439 30.9304L26.0281 42.6587C24.981 43.2632 23.2832 43.2632 22.236 42.6587L1.92022 30.9304C0.873062 30.3258 0.873063 29.3457 1.92022 28.7412L22.236 17.0129Z" fill="#A2A2A2"/>
<path d="M22.2119 10.3874C23.259 9.78291 24.9568 9.78291 26.004 10.3874L46.3198 22.1158C47.3669 22.7203 47.3669 23.7004 46.3198 24.3049L26.004 36.0332C24.9568 36.6378 23.259 36.6378 22.2119 36.0332L1.89605 24.3049C0.848893 23.7004 0.848893 22.7203 1.89605 22.1158L22.2119 10.3874Z" fill="#CBCBCB"/>
<path d="M22.2119 3.09459C23.259 2.49006 24.9568 2.49006 26.004 3.09459L46.3198 14.8229C47.3669 15.4274 47.3669 16.4076 46.3198 17.0121L26.004 28.7404C24.9568 29.3449 23.259 29.3449 22.2119 28.7404L1.89605 17.0121C0.848893 16.4076 0.848891 15.4274 1.89605 14.8229L22.2119 3.09459Z" fill="#EBEBEB"/>
<path d="M68.7793 46.4506L50 0H58.2948L72.9599 37.625H70.0401L84.838 0H93L74.088 46.4506H68.7793Z" fill="url(#paint0_linear_1208_237)"/>
<rect x="72" width="32" height="18" rx="5" fill="url(#paint1_linear_1208_237)"/>
<rect x="73" y="1" width="30" height="16" rx="4" fill="black"/>
<path d="M80.6227 6.37325C80.0066 6.37325 79.5295 6.60745 79.1916 7.07585C78.8536 7.5407 78.6846 8.19006 78.6846 9.02395C78.6846 10.7591 79.3306 11.6267 80.6227 11.6267C81.1648 11.6267 81.8214 11.4901 82.5924 11.2169V12.6008C81.9587 12.8669 81.2511 13 80.4695 13C79.3465 13 78.4874 12.6576 77.8925 11.9727C77.2975 11.2843 77 10.2978 77 9.01331C77 8.20426 77.1461 7.49634 77.4383 6.88955C77.7305 6.27922 78.1495 5.8126 78.6952 5.48969C79.2444 5.16323 79.8869 5 80.6227 5C81.3725 5 82.1259 5.18275 82.8829 5.54824L82.3548 6.88955C82.0661 6.75116 81.7756 6.63052 81.4834 6.52761C81.1912 6.42471 80.9043 6.37325 80.6227 6.37325Z" fill="white"/>
<path d="M87.5089 12.8935L85.65 6.78842H85.6025C85.6694 8.03038 85.7028 8.85895 85.7028 9.27412V12.8935H84.24V5.11178H86.4686L88.2957 11.0625H88.3274L90.2655 5.11178H92.494V12.8935H90.9678V9.21025C90.9678 9.03637 90.9696 8.83588 90.9731 8.60878C90.9802 8.38168 91.0048 7.77844 91.047 6.79907H90.9995L89.0086 12.8935H87.5089Z" fill="white"/>
<path d="M99 10.7325C99 11.4351 98.7483 11.9887 98.2448 12.3932C97.7449 12.7977 97.0478 13 96.1536 13C95.3298 13 94.6011 12.8439 93.9674 12.5316V10.9987C94.4884 11.2329 94.9285 11.3979 95.2876 11.4937C95.6502 11.5895 95.9811 11.6374 96.2804 11.6374C96.6395 11.6374 96.9141 11.5682 97.1042 11.4298C97.2978 11.2914 97.3946 11.0856 97.3946 10.8124C97.3946 10.6598 97.3524 10.525 97.2679 10.4079C97.1834 10.2872 97.0584 10.1719 96.8929 10.0619C96.731 9.95187 96.3983 9.77623 95.8949 9.53493C95.4231 9.31138 95.0693 9.0967 94.8334 8.89088C94.5975 8.68507 94.4092 8.44555 94.2684 8.17232C94.1275 7.89909 94.0571 7.57973 94.0571 7.21424C94.0571 6.52584 94.2877 5.9847 94.7489 5.59082C95.2136 5.19694 95.8544 5 96.6711 5C97.0725 5 97.4545 5.0479 97.8171 5.14371C98.1832 5.23952 98.5652 5.37436 98.963 5.54824L98.435 6.831C98.023 6.66068 97.6816 6.54181 97.4105 6.47438C97.1429 6.40696 96.8789 6.37325 96.6183 6.37325C96.3085 6.37325 96.0709 6.446 95.9054 6.59148C95.74 6.73697 95.6572 6.92681 95.6572 7.16101C95.6572 7.3065 95.6907 7.43424 95.7576 7.54424C95.8245 7.6507 95.9301 7.75538 96.0744 7.85828C96.2223 7.95764 96.5691 8.13861 97.1147 8.4012C97.8365 8.74895 98.3311 9.09847 98.5987 9.44977C98.8662 9.79752 99 10.2251 99 10.7325Z" fill="white"/>
<defs>
<linearGradient id="paint0_linear_1208_237" x1="50.0001" y1="-3.00007" x2="75.5001" y2="47.9999" gradientUnits="userSpaceOnUse">
<stop stop-color="#DEC880"/>
<stop offset="0.155674" stop-color="white"/>
<stop offset="0.567708" stop-color="#FF347D"/>
<stop offset="1" stop-color="#827DED"/>
</linearGradient>
<linearGradient id="paint1_linear_1208_237" x1="71.8267" y1="7.63569" x2="104.077" y2="7.63569" gradientUnits="userSpaceOnUse">
<stop stop-color="#DEC880"/>
<stop offset="0.155674" stop-color="white"/>
<stop offset="0.567708" stop-color="#FF347D"/>
<stop offset="1" stop-color="#827DED"/>
</linearGradient>
</defs>
</svg>
