<svg width="510" height="433" viewBox="0 0 510 433" fill="none" xmlns="http://www.w3.org/2000/svg">
<path d="M236.356 164.479C246.852 158.42 263.869 158.42 274.365 164.479L477.996 282.035C488.491 288.094 488.491 297.918 477.995 303.978L274.365 421.534C263.869 427.593 246.852 427.593 236.356 421.534L32.7252 303.978C22.2293 297.918 22.2293 288.094 32.7252 282.035L236.356 164.479Z" fill="#171717"/>
<path d="M236.114 98.0734C246.61 92.0141 263.628 92.0141 274.123 98.0734L477.754 215.629C488.25 221.689 488.25 231.513 477.754 237.572L274.123 355.128C263.628 361.187 246.61 361.187 236.114 355.128L32.4838 237.572C21.9878 231.513 21.9878 221.689 32.4838 215.629L236.114 98.0734Z" fill="#212121"/>
<g filter="url(#filter0_d_38_539)">
<path d="M236.118 24.9693C246.612 18.9111 263.626 18.9111 274.12 24.9693L477.758 142.529C488.252 148.587 488.252 158.41 477.758 164.468L274.12 282.028C263.626 288.086 246.612 288.086 236.118 282.028L32.4802 164.468C21.9863 158.41 21.9863 148.587 32.4802 142.529L236.118 24.9693Z" fill="#333333"/>
<path d="M273.254 25.4693L476.892 143.029C486.907 148.811 486.907 158.186 476.892 163.968L273.254 281.528C263.238 287.31 247 287.31 236.984 281.528L33.3463 163.968C23.3306 158.186 23.3306 148.811 33.3463 143.029L236.984 25.4692C247 19.6872 263.238 19.6872 273.254 25.4693Z" stroke="url(#paint0_linear_38_539)" stroke-width="2"/>
</g>
<mask id="mask0_38_539" style="mask-type:alpha" maskUnits="userSpaceOnUse" x="28" y="21" width="458" height="265">
<path d="M275.271 26.4174L477.075 142.919C487.196 148.762 487.196 158.235 477.075 164.078L275.271 280.58C265.15 286.423 248.74 286.423 238.619 280.58L36.8148 164.078C26.6937 158.235 26.6937 148.762 36.8147 142.919L238.619 26.4174C248.74 20.5745 265.15 20.5745 275.271 26.4174Z" fill="#333333" stroke="url(#paint1_linear_38_539)" stroke-width="1.56743"/>
</mask>
<g mask="url(#mask0_38_539)">
<path d="M181.033 14.9443L181.04 14.9551L181.049 14.9657C195.559 32.7973 222.338 39.3128 250.142 46.0779C251.746 46.4681 253.353 46.8591 254.961 47.2531C284.505 54.492 314.684 62.7864 333.286 85.6835C337.93 91.399 339.844 96.3375 339.789 100.743C339.734 105.147 337.713 109.05 334.406 112.697C331.093 116.351 326.491 119.747 321.272 123.131C318.252 125.088 315.066 127.018 311.813 128.987C309.415 130.439 306.981 131.913 304.551 133.436C293.172 140.569 282.245 148.568 277.71 159.328C273.171 170.098 275.068 183.55 289.024 201.562C316.539 237.074 281.484 270.588 229.198 289.777C203.078 299.364 172.745 305.332 143.977 306.151C115.212 306.969 88.0796 302.64 68.226 291.684C48.1043 280.579 32.6849 273.929 18.7006 270.048C4.68708 266.158 -7.83137 265.062 -22.0922 265.011C-29.6957 264.983 -37.7812 265.251 -46.857 265.551C-71.7952 266.375 -104.21 267.446 -154.641 263.33C-222.997 257.751 -269.762 224.205 -284.526 188.102C-299.293 151.992 -281.962 113.599 -222.711 98.2169C-192.773 90.4444 -173.533 84.1214 -160.197 77.6194C-146.826 71.1011 -139.423 64.4202 -133.094 55.9809C-129.621 51.3495 -126.475 46.1995 -122.843 40.2549C-113.254 24.5586 -100.281 3.32295 -68.9704 -28.5312C-49.0935 -48.7534 -26.543 -60.2005 -3.2372 -65.0347C20.0573 -69.8665 44.2585 -68.1232 67.5611 -61.7888C114.222 -49.1048 157.07 -18.059 181.033 14.9443Z" fill="#333333" stroke="url(#paint2_linear_38_539)" stroke-width="1.56743"/>
<path d="M14.4368 118.617C16.0476 116.753 19.2213 115.295 23.2853 114.348C27.342 113.403 32.209 112.988 37.0623 113.179C46.8074 113.563 56.1694 116.362 59.0078 121.955C61.8173 127.491 67.519 131.407 73.0837 134.712C74.2094 135.381 75.3167 136.017 76.3929 136.636C78.0053 137.563 79.5481 138.45 80.9792 139.345C83.3452 140.825 85.2901 142.26 86.5261 143.785C93.3318 152.179 93.6366 155.705 92.4705 158.438C92.1403 159.212 91.6603 159.961 91.1463 160.763C89.8494 162.788 88.3359 165.151 88.466 169.1C88.6785 175.552 82.9373 183.743 73.9008 188.394C69.4032 190.709 64.1508 192.116 58.4578 192.042C52.7707 191.968 46.4773 190.414 39.8993 186.617C34.3368 183.405 29.8482 181.593 25.882 180.596C21.8952 179.595 18.5009 179.433 15.2001 179.463C14.1957 179.472 13.2183 179.497 12.2434 179.523C9.9785 179.582 7.72639 179.641 5.17648 179.491C1.59243 179.282 -2.52528 178.657 -7.73064 176.993C-18.1611 173.66 -25.9399 168.212 -28.5273 162.132C-31.1036 156.079 -28.5617 149.338 -18.1544 143.33C-17.3635 142.873 -16.5242 142.397 -15.6425 141.898C-7.63309 137.358 3.88053 130.832 14.4368 118.617Z" fill="#333333" stroke="url(#paint3_linear_38_539)" stroke-width="1.56743"/>
<path d="M170.475 24.3665L170.482 24.3767L170.491 24.3868C183.99 41.1545 208.988 47.4036 234.866 53.8724C236.235 54.2147 237.607 54.5576 238.98 54.9028C266.343 61.7825 294.253 69.565 311.387 90.6551C320.113 101.397 318.851 109.25 312.947 116.048C308.171 121.546 300.369 126.361 292.085 131.474C290.013 132.752 287.912 134.049 285.82 135.38C275.418 141.997 265.38 149.392 261.174 159.329C256.964 169.276 258.63 181.688 271.33 198.318C296.344 231.171 263.977 262.376 215.622 280.246C191.467 289.173 163.41 294.73 136.731 295.467C110.057 296.204 84.8221 292.123 66.183 281.821C47.3861 271.435 32.9612 265.225 19.8886 261.606C6.78716 257.978 -4.90179 256.968 -18.1675 256.923C-25.1421 256.9 -32.5405 257.142 -40.8137 257.413C-63.9775 258.171 -93.9989 259.153 -140.776 255.166C-203.844 249.79 -247.063 218.806 -260.72 185.431C-274.38 152.051 -258.388 116.544 -203.603 102.017C-176.203 94.8454 -158.497 88.9796 -146.137 82.9312C-133.745 76.8673 -126.762 70.6373 -120.748 62.7849C-117.366 58.3693 -114.295 53.4535 -110.741 47.7654C-101.665 33.2374 -89.4412 13.6717 -60.8567 -15.4625C-42.6356 -34.0221 -21.8409 -44.5583 -0.295506 -49.037C21.24 -53.5135 43.6749 -51.9691 65.2963 -46.1961C108.594 -34.6357 148.426 -6.16287 170.475 24.3665Z" fill="#333333" stroke="url(#paint4_linear_38_539)" stroke-width="1.56743"/>
<path d="M159.917 33.7888L159.924 33.7985L159.932 33.8079C172.421 49.5135 195.639 55.4988 219.59 61.6725C220.724 61.9651 221.861 62.258 222.998 62.5524C248.18 69.0732 273.821 76.3437 289.487 95.627C297.676 105.708 296.713 113.066 291.487 119.4C287.18 124.621 279.983 129.161 272.337 133.983C270.601 135.079 268.841 136.188 267.088 137.324C257.664 143.426 248.515 150.216 244.638 159.33C240.757 168.454 242.191 179.826 253.635 195.072C276.151 225.269 246.469 254.164 202.046 270.716C157.582 287.282 98.9825 291.249 64.1401 271.959C46.6679 262.291 33.2375 256.522 21.0766 253.164C8.88712 249.799 -1.97232 248.873 -14.2428 248.836C-20.5903 248.817 -27.3046 249.034 -34.7807 249.276C-56.1704 249.968 -83.7962 250.861 -126.911 247.002C-184.691 241.829 -224.363 213.408 -236.914 182.761C-249.468 152.11 -234.815 119.489 -184.494 105.816C-159.632 99.2464 -143.459 93.8379 -132.077 88.2433C-120.664 82.6339 -114.102 76.8552 -108.402 69.5898C-105.103 65.3837 -102.098 60.6946 -98.6116 55.2529C-90.055 41.8987 -78.594 24.0117 -52.7431 -2.3932C-36.1781 -19.2901 -17.1392 -28.9157 2.64631 -33.0389C22.4235 -37.1604 43.0922 -35.8145 63.0326 -30.6028C102.966 -20.1658 139.782 5.73406 159.917 33.7888Z" fill="#333333" stroke="url(#paint5_linear_38_539)" stroke-width="1.56743"/>
<path d="M149.36 43.2112L149.366 43.2201L149.373 43.2288C160.85 57.8746 182.29 63.5994 204.313 69.4797C205.212 69.7199 206.113 69.9603 207.014 70.2016C230.016 76.3639 253.39 83.1222 267.587 100.599C275.24 110.021 274.575 116.883 270.026 122.754C266.195 127.7 259.607 131.965 252.604 136.498C251.198 137.408 249.775 138.33 248.354 139.269C239.909 144.855 231.649 151.041 228.102 159.331C224.55 167.632 225.753 177.965 235.94 191.827C255.958 219.368 228.96 245.954 188.468 261.186C147.942 276.431 94.5072 280.075 62.0972 262.097C45.9495 253.148 33.5135 247.818 22.2642 244.723C10.9867 241.62 0.956747 240.779 -10.3184 240.749C-16.0409 240.734 -22.0745 240.927 -28.7598 241.14C-48.3762 241.766 -73.6033 242.571 -113.044 238.838C-165.538 233.87 -201.663 208.009 -213.109 180.09C-224.555 152.17 -211.242 122.435 -165.384 109.616C-143.061 103.647 -128.422 98.6962 -118.016 93.5554C-107.583 88.4008 -101.442 83.0737 -96.0574 76.3956C-92.8278 72.39 -89.8784 67.9173 -86.4429 62.7075C-78.4162 50.5352 -67.7361 34.3392 -44.6291 10.6756C-29.7205 -4.55802 -12.4377 -13.2729 5.58809 -17.0407C23.6075 -20.8072 42.5107 -19.6597 60.7701 -15.0091C97.3392 -5.69509 131.138 17.6317 149.36 43.2112Z" fill="#333333" stroke="url(#paint6_linear_38_539)" stroke-width="1.56743"/>
<path d="M138.801 52.6338L138.806 52.6419L138.812 52.6498C149.278 66.2387 168.941 71.7075 189.035 77.2966C189.699 77.4811 190.363 77.6658 191.027 77.8509C211.85 83.6548 232.957 89.9008 245.687 105.572C252.804 114.335 252.437 120.702 248.563 126.111C245.216 130.786 239.244 134.775 232.89 139.019C231.807 139.743 230.713 140.473 229.619 141.216C222.153 146.286 214.783 151.867 211.565 159.333C208.343 166.81 209.313 176.102 218.243 188.58C235.766 213.466 211.45 237.744 174.89 251.656C138.301 265.579 90.0319 268.902 60.0535 252.236C45.2302 244.005 33.7886 239.115 23.4508 236.282C13.0852 233.442 3.88477 232.685 -6.39492 232.663C-11.4951 232.652 -16.8525 232.82 -22.7549 233.006C-40.5988 233.566 -63.4232 234.283 -99.1769 230.675C-146.386 225.911 -178.965 202.611 -189.304 177.421C-199.642 152.231 -187.671 125.38 -146.274 113.416C-126.488 108.049 -113.384 103.555 -103.957 98.868C-94.5036 94.1685 -88.7837 89.2934 -83.7142 83.2029C-80.5673 79.4222 -77.6523 75.1466 -74.2462 70.1506C-72.1977 67.146 -69.9715 63.8808 -67.4104 60.3059C-60.5728 50.7617 -51.2957 38.9293 -36.5165 23.7457C-23.2645 10.1753 -7.73768 2.37058 8.52926 -1.04196C24.7918 -4.45358 41.9301 -3.50406 58.5087 0.585726C91.7133 8.777 122.494 29.5308 138.801 52.6338Z" fill="#333333" stroke="url(#paint7_linear_38_539)" stroke-width="1.56743"/>
<path d="M127.874 62.2682L127.879 62.2753L127.884 62.2824C137.338 74.8185 155.224 80.0373 173.39 85.3379C173.817 85.4623 174.243 85.5867 174.669 85.7113C193.316 91.1576 212.156 96.8911 223.419 110.757C230.001 118.863 229.932 124.737 226.732 129.684C223.88 134.092 218.531 137.805 212.833 141.761C212.065 142.295 211.29 142.832 210.514 143.377C204.028 147.93 197.549 152.906 194.661 159.547C191.768 166.199 192.505 174.451 200.179 185.545C215.207 207.777 193.571 229.747 160.942 242.34C128.294 254.94 85.19 257.942 57.6427 242.587L57.6422 242.587C44.1436 235.074 33.6962 230.624 24.2698 228.054C14.816 225.476 6.44512 224.804 -2.83895 224.789C-7.32026 224.782 -12.0071 224.926 -17.1365 225.084C-33.209 225.58 -53.6257 226.209 -85.6743 222.725C-127.601 218.166 -156.634 197.424 -165.866 174.963C-175.097 152.505 -164.468 128.537 -127.529 117.428C-110.282 112.661 -98.7125 108.625 -90.2639 104.392C-81.792 100.149 -76.4938 95.726 -71.7396 90.2236C-68.6227 86.6163 -65.7225 82.5217 -62.3122 77.7072C-60.5489 75.2177 -58.6492 72.5357 -56.5127 69.629C-50.2292 61.0805 -41.8524 50.5208 -28.7704 37.027C-17.1756 25.1208 -3.40531 18.2263 11.1033 15.1689C25.61 12.112 40.9844 12.8639 55.8823 16.3932C85.7223 23.4623 113.482 41.6432 127.874 62.2682Z" fill="#333333" stroke="url(#paint8_linear_38_539)" stroke-width="1.56743"/>
<path d="M116.512 72.1535L116.516 72.1595L116.52 72.1655C124.961 83.6545 141.074 88.632 157.31 93.6479L157.874 93.8219C174.345 98.9113 190.919 104.132 200.715 116.193C206.764 123.643 206.994 129.025 204.463 133.513C202.123 137.662 197.407 141.099 192.375 144.766C191.91 145.106 191.441 145.447 190.971 145.791C185.466 149.826 179.88 154.197 177.322 160.011C174.759 165.838 175.261 173.049 181.677 182.76C194.215 202.339 175.255 222.003 146.559 233.275C117.853 244.551 79.9139 247.234 54.7966 233.19L54.796 233.19C42.6215 226.394 33.1683 222.384 24.6531 220.076C16.1111 217.761 8.5697 217.174 0.281413 217.166C-3.58554 217.163 -7.60914 217.284 -11.9779 217.416C-26.2806 217.847 -44.2834 218.391 -72.6036 215.026C-109.251 210.672 -134.738 192.489 -142.864 172.756C-150.987 153.031 -141.701 131.944 -109.217 121.69C-94.5075 117.524 -84.4744 113.945 -77.0056 110.168C-69.5164 106.38 -64.6406 102.411 -60.2018 97.4973C-57.0741 94.0348 -54.1477 90.0835 -50.6759 85.3958C-49.2444 83.4631 -47.7203 81.4051 -46.0511 79.2047C-40.3215 71.6514 -32.8449 62.3643 -21.4599 50.5601C-11.5228 40.3186 0.490811 34.3335 13.2424 31.6312C25.9949 28.9286 39.6066 29.4834 52.8243 32.4528C79.2994 38.4005 104.037 54.0086 116.512 72.1535Z" fill="#333333" stroke="url(#paint9_linear_38_539)" stroke-width="1.56743"/>
<path d="M105.125 82.0525L105.128 82.0572L105.132 82.0619C112.531 92.4739 126.796 97.2261 141.049 101.945L141.225 102.003C155.464 106.718 169.692 111.428 177.988 121.644C183.505 128.439 184.035 133.332 182.17 137.362C180.364 141.265 176.295 144.424 171.942 147.803C171.762 147.943 171.582 148.083 171.401 148.224C166.879 151.739 162.186 155.503 159.959 160.49C157.726 165.49 157.993 171.658 163.151 179.985C173.203 196.915 156.913 214.275 132.149 224.226C107.389 234.175 74.6161 236.541 51.9272 223.807L51.9265 223.807C41.0758 217.729 32.6165 214.159 25.0123 212.113C17.3819 210.061 10.6701 209.558 3.3779 209.558C0.119065 209.558 -3.25086 209.657 -6.87538 209.764C-19.4105 210.132 -34.9907 210.591 -59.5516 207.343C-90.9239 203.195 -112.867 187.568 -119.886 170.565C-126.9 153.572 -118.96 135.365 -90.924 125.966C-78.7528 122.401 -70.2574 119.279 -63.77 115.958C-57.2653 112.627 -52.8129 109.112 -48.69 104.788C-45.4774 101.418 -42.4509 97.5399 -38.8108 92.8759C-37.7986 91.5789 -36.7389 90.2211 -35.6146 88.7965C-30.4382 82.2378 -23.8613 74.2227 -14.1728 64.1074C-5.89422 55.5317 4.362 50.4556 15.3583 48.1079C26.3588 45.7593 38.2097 46.1178 49.7478 48.5279C72.8584 53.3553 94.5685 66.391 105.125 82.0525Z" fill="#333333" stroke="url(#paint10_linear_38_539)" stroke-width="1.56743"/>
<path d="M93.7034 91.9702L93.7034 91.9702L93.7077 91.9766C99.9653 101.176 112.102 105.722 124.183 110.085C124.49 110.196 124.797 110.307 125.103 110.417C136.917 114.68 148.534 118.872 155.227 127.115C160.212 133.257 161.045 137.663 159.842 141.24C158.633 144.837 155.351 147.669 151.791 150.681L151.579 150.86C148.103 153.8 144.42 156.915 142.562 160.988C140.66 165.159 140.69 170.283 144.588 177.226C152.161 191.512 138.533 206.569 117.703 215.198C96.8933 223.817 69.2865 225.87 49.0234 214.445L49.0227 214.444C39.4954 209.084 32.0298 205.954 25.3362 204.17C18.6173 202.38 12.735 201.963 6.4393 201.97C3.77989 201.973 1.05047 202.051 -1.85138 202.133C-12.6221 202.441 -25.7683 202.816 -46.5263 199.682C-72.6311 195.74 -91.0299 182.666 -96.9418 168.393C-102.847 154.135 -96.2539 138.804 -72.6598 130.259C-53.3406 124.314 -44.8581 119.598 -37.2163 112.101C-33.7625 108.712 -30.4789 104.755 -26.4343 99.8797C-26.0355 99.3991 -25.6294 98.9096 -25.2149 98.4108C-20.5906 92.8455 -14.9129 86.1016 -6.91949 77.674C-0.301018 70.7659 8.19655 66.5979 17.4405 64.6044C26.6923 62.6092 36.7852 62.7722 46.6448 64.6241C66.3918 68.3332 85.0673 78.7973 93.7034 91.9702Z" fill="#333333" stroke="url(#paint11_linear_38_539)" stroke-width="1.56743"/>
<path d="M82.2304 101.916L82.2323 101.919C87.3452 109.904 97.3461 114.242 107.257 118.251C107.82 118.479 108.383 118.705 108.944 118.932C118.311 122.706 127.315 126.333 132.416 132.616C136.871 138.107 138.011 142.031 137.467 145.162C136.922 148.294 134.684 150.702 132.121 153.18C131.85 153.442 131.574 153.706 131.297 153.971C128.971 156.196 126.51 158.551 125.116 161.515C123.547 164.853 123.336 168.93 125.971 174.489C131.076 186.138 120.099 198.897 103.202 206.202C94.7723 209.846 84.9375 212.1 75.0075 212.184C65.0994 212.268 55.0287 210.194 46.0702 205.113L46.0695 205.113C37.865 200.469 31.3926 197.779 25.6091 196.258C19.8015 194.73 14.7486 194.398 9.45011 194.412C7.37745 194.418 5.27005 194.476 3.06147 194.537C-5.94987 194.785 -16.6454 195.079 -33.5379 192.053C-54.3875 188.318 -69.2435 177.794 -74.0478 166.251C-78.8436 154.729 -73.6002 142.271 -54.4349 134.578C-40.1989 129.835 -32.794 125.752 -25.7978 119.449C-22.3163 116.312 -18.9392 112.629 -14.8689 108.06C-14.0926 107.188 -13.2907 106.284 -12.4576 105.345C-8.91819 101.354 -4.81557 96.7283 0.28485 91.2702C5.24078 86.033 11.9771 82.7715 19.4741 81.1312C26.9824 79.4885 35.3221 79.4573 43.5055 80.7526C59.8926 83.3465 75.5187 91.2413 82.2304 101.916Z" fill="#333333" stroke="url(#paint12_linear_38_539)" stroke-width="1.56743"/>
<path d="M43.0418 195.828L43.0412 195.827C36.1585 191.901 30.6786 189.65 25.8045 188.391C20.9077 187.126 16.6843 186.879 12.3838 186.901C10.8783 186.909 9.36555 186.949 7.80865 186.99C0.549353 187.182 -7.67028 187.4 -20.6015 184.478C-36.2183 180.948 -47.5337 172.967 -51.2299 164.155C-54.9153 155.37 -51.0243 145.777 -36.2652 138.934C-17.9261 131.836 -10.9985 125.121 7.41527 104.911C13.9685 97.8174 27.2827 95.4454 40.3153 96.9291C53.3551 98.4136 65.8984 103.746 70.6791 111.904C74.6429 118.668 82.4995 122.797 90.2394 126.454C91.0743 126.848 91.9062 127.236 92.7311 127.622C99.6112 130.834 106.001 133.817 109.528 138.164C113.456 143.006 114.91 146.454 115.023 149.149C115.136 151.829 113.927 153.813 112.362 155.746C111.972 156.228 111.553 156.713 111.126 157.208C109.855 158.68 108.507 160.242 107.596 162.086C106.362 164.583 105.908 167.607 107.275 171.78C109.926 180.81 101.58 191.278 88.6166 197.257C82.1536 200.238 74.6057 202.072 66.7856 202.076C58.9851 202.08 50.8044 200.264 43.0418 195.828Z" fill="#333333" stroke="url(#paint13_linear_38_539)" stroke-width="1.56743"/>
</g>
<defs>
<filter id="filter0_d_38_539" x="0.609741" y="0.425659" width="509.018" height="314.146" filterUnits="userSpaceOnUse" color-interpolation-filters="sRGB">
<feFlood flood-opacity="0" result="BackgroundImageFix"/>
<feColorMatrix in="SourceAlpha" type="matrix" values="0 0 0 0 0 0 0 0 0 0 0 0 0 0 0 0 0 0 127 0" result="hardAlpha"/>
<feOffset dy="4"/>
<feGaussianBlur stdDeviation="12"/>
<feComposite in2="hardAlpha" operator="out"/>
<feColorMatrix type="matrix" values="0 0 0 0 0.509804 0 0 0 0 0.490196 0 0 0 0 0.929412 0 0 0 0.3 0"/>
<feBlend mode="normal" in2="BackgroundImageFix" result="effect1_dropShadow_38_539"/>
<feBlend mode="normal" in="SourceGraphic" in2="effect1_dropShadow_38_539" result="shape"/>
</filter>
<linearGradient id="paint0_linear_38_539" x1="179.175" y1="57.8424" x2="299.92" y2="267.101" gradientUnits="userSpaceOnUse">
<stop stop-color="#DEC880"/>
<stop offset="0.223958" stop-color="white"/>
<stop offset="0.578125" stop-color="#FF347D"/>
<stop offset="1" stop-color="#827DED"/>
</linearGradient>
<linearGradient id="paint1_linear_38_539" x1="181.575" y1="58.5653" x2="301.407" y2="266.242" gradientUnits="userSpaceOnUse">
<stop stop-color="#DEC880"/>
<stop offset="0.223958" stop-color="white"/>
<stop offset="0.578125" stop-color="#FF347D"/>
<stop offset="1" stop-color="#827DED"/>
<stop offset="1" stop-color="#827DED"/>
</linearGradient>
<linearGradient id="paint2_linear_38_539" x1="-100.076" y1="-17.1971" x2="116.933" y2="358.897" gradientUnits="userSpaceOnUse">
<stop stop-color="#DEC880"/>
<stop offset="0.223958" stop-color="white"/>
<stop offset="0.578125" stop-color="#FF347D"/>
<stop offset="1" stop-color="#827DED"/>
</linearGradient>
<linearGradient id="paint3_linear_38_539" x1="8.22296" y1="120.907" x2="54.1961" y2="200.584" gradientUnits="userSpaceOnUse">
<stop stop-color="#DEC880"/>
<stop offset="0.223958" stop-color="white"/>
<stop offset="0.578125" stop-color="#FF347D"/>
<stop offset="1" stop-color="#827DED"/>
</linearGradient>
<linearGradient id="paint4_linear_38_539" x1="-90.0596" y1="-4.7411" x2="111.384" y2="344.378" gradientUnits="userSpaceOnUse">
<stop stop-color="#DEC880"/>
<stop offset="0.223958" stop-color="white"/>
<stop offset="0.578125" stop-color="#FF347D"/>
<stop offset="1" stop-color="#827DED"/>
</linearGradient>
<linearGradient id="paint5_linear_38_539" x1="-80.0431" y1="7.71514" x2="105.836" y2="329.86" gradientUnits="userSpaceOnUse">
<stop stop-color="#DEC880"/>
<stop offset="0.223958" stop-color="white"/>
<stop offset="0.578125" stop-color="#FF347D"/>
<stop offset="1" stop-color="#827DED"/>
</linearGradient>
<linearGradient id="paint6_linear_38_539" x1="-70.0268" y1="20.1714" x2="100.288" y2="315.343" gradientUnits="userSpaceOnUse">
<stop stop-color="#DEC880"/>
<stop offset="0.223958" stop-color="white"/>
<stop offset="0.578125" stop-color="#FF347D"/>
<stop offset="1" stop-color="#827DED"/>
</linearGradient>
<linearGradient id="paint7_linear_38_539" x1="-60.0112" y1="32.6281" x2="94.7415" y2="300.829" gradientUnits="userSpaceOnUse">
<stop stop-color="#DEC880"/>
<stop offset="0.223958" stop-color="white"/>
<stop offset="0.578125" stop-color="#FF347D"/>
<stop offset="1" stop-color="#827DED"/>
</linearGradient>
<linearGradient id="paint8_linear_38_539" x1="-50.1111" y1="45.1513" x2="89.0809" y2="286.385" gradientUnits="userSpaceOnUse">
<stop stop-color="#DEC880"/>
<stop offset="0.223958" stop-color="white"/>
<stop offset="0.578125" stop-color="#FF347D"/>
<stop offset="1" stop-color="#827DED"/>
</linearGradient>
<linearGradient id="paint9_linear_38_539" x1="-40.3484" y1="57.7537" x2="83.2853" y2="272.023" gradientUnits="userSpaceOnUse">
<stop stop-color="#DEC880"/>
<stop offset="0.223958" stop-color="white"/>
<stop offset="0.578125" stop-color="#FF347D"/>
<stop offset="1" stop-color="#827DED"/>
</linearGradient>
<linearGradient id="paint10_linear_38_539" x1="-30.5934" y1="70.3611" x2="77.4853" y2="257.673" gradientUnits="userSpaceOnUse">
<stop stop-color="#DEC880"/>
<stop offset="0.223958" stop-color="white"/>
<stop offset="0.578125" stop-color="#FF347D"/>
<stop offset="1" stop-color="#827DED"/>
</linearGradient>
<linearGradient id="paint11_linear_38_539" x1="-20.8505" y1="82.9748" x2="71.6784" y2="243.337" gradientUnits="userSpaceOnUse">
<stop stop-color="#DEC880"/>
<stop offset="0.223958" stop-color="white"/>
<stop offset="0.578125" stop-color="#FF347D"/>
<stop offset="1" stop-color="#827DED"/>
</linearGradient>
<linearGradient id="paint12_linear_38_539" x1="-11.1249" y1="95.599" x2="65.8631" y2="229.028" gradientUnits="userSpaceOnUse">
<stop stop-color="#DEC880"/>
<stop offset="0.223958" stop-color="white"/>
<stop offset="0.578125" stop-color="#FF347D"/>
<stop offset="1" stop-color="#827DED"/>
</linearGradient>
<linearGradient id="paint13_linear_38_539" x1="-1.42701" y1="108.239" x2="60.0362" y2="214.762" gradientUnits="userSpaceOnUse">
<stop stop-color="#DEC880"/>
<stop offset="0.223958" stop-color="white"/>
<stop offset="0.578125" stop-color="#FF347D"/>
<stop offset="1" stop-color="#827DED"/>
</linearGradient>
</defs>
</svg>
