<svg width="510" height="441" viewBox="0 0 510 441" fill="none" xmlns="http://www.w3.org/2000/svg">
<g filter="url(#filter0_d_7_391)">
<path d="M235.88 150.477C246.374 144.419 263.388 144.419 273.882 150.477L477.52 268.037C488.014 274.095 488.014 283.918 477.52 289.976L273.882 407.536C263.388 413.594 246.374 413.594 235.88 407.536L32.2425 289.976C21.7486 283.918 21.7486 274.095 32.2426 268.037L235.88 150.477Z" fill="#171717"/>
<path d="M273.016 150.977L476.654 268.537C486.67 274.319 486.67 283.694 476.654 289.476L273.016 407.036C263.001 412.818 246.762 412.818 236.746 407.036L33.1086 289.476C23.0929 283.694 23.0929 274.319 33.1086 268.537L236.746 150.977C246.762 145.195 263.001 145.195 273.016 150.977Z" stroke="url(#paint0_linear_7_391)" stroke-width="2"/>
</g>
<path d="M235.635 84.0734C246.131 78.0141 263.148 78.0141 273.644 84.0734L477.275 201.629C487.771 207.689 487.771 217.513 477.275 223.572L273.644 341.128C263.148 347.187 246.131 347.187 235.635 341.128L32.0046 223.572C21.5087 217.513 21.5087 207.689 32.0046 201.629L235.635 84.0734Z" fill="#212121"/>
<path d="M235.635 10.9713C246.131 4.91203 263.148 4.91203 273.644 10.9713L477.275 128.527C487.771 134.587 487.771 144.411 477.275 150.47L273.644 268.026C263.148 274.085 246.131 274.085 235.635 268.026L32.0046 150.47C21.5087 144.411 21.5087 134.587 32.0046 128.527L235.635 10.9713Z" fill="#333333"/>
<defs>
<filter id="filter0_d_7_391" x="0.37207" y="125.933" width="509.018" height="314.146" filterUnits="userSpaceOnUse" color-interpolation-filters="sRGB">
<feFlood flood-opacity="0" result="BackgroundImageFix"/>
<feColorMatrix in="SourceAlpha" type="matrix" values="0 0 0 0 0 0 0 0 0 0 0 0 0 0 0 0 0 0 127 0" result="hardAlpha"/>
<feOffset dy="4"/>
<feGaussianBlur stdDeviation="12"/>
<feComposite in2="hardAlpha" operator="out"/>
<feColorMatrix type="matrix" values="0 0 0 0 0.509804 0 0 0 0 0.490196 0 0 0 0 0.929412 0 0 0 0.3 0"/>
<feBlend mode="normal" in2="BackgroundImageFix" result="effect1_dropShadow_7_391"/>
<feBlend mode="normal" in="SourceGraphic" in2="effect1_dropShadow_7_391" result="shape"/>
</filter>
<linearGradient id="paint0_linear_7_391" x1="178.937" y1="183.35" x2="299.682" y2="392.609" gradientUnits="userSpaceOnUse">
<stop stop-color="#DEC880"/>
<stop offset="0.223958" stop-color="white"/>
<stop offset="0.578125" stop-color="#FF347D"/>
<stop offset="1" stop-color="#827DED"/>
</linearGradient>
</defs>
</svg>
